<svg version="1" xmlns="http://www.w3.org/2000/svg" width="682.667" height="682.667" viewBox="0 0 512.000000 512.000000"><path d="M242.8 8.5c-.2.2-2.5.6-5.3.9-23.2 3.1-47 17.7-61 37.6-5.1 7.3-12 20-10.8 20 .3 0 .1.6-.5 1.2-.9 1.1-3.2 8.8-4.8 16.3-.3 1.1-.7 6.9-1 13-.5 8.8-.2 13 1.5 21.1 3.1 14.9 9.9 30 17.5 38.9 1.4 1.6 2.4 3 2.2 3.2-.1.1-7.4-1.9-16.2-4.6-50.5-15.6-55.4-16.9-63.5-16.5-13.8.6-25.8 6-33.8 15-11.1 12.7-16.8 34.3-13 49.9 1.9 8 7.7 19.4 11.9 23.5 4.5 4.4 6 5.2 22 11 6.3 2.4 13.3 5 15.5 6 2.2 1 8.1 3.2 13 5 30.4 10.8 33.2 12.2 39.4 20 5.6 7 8.3 14.9 8.3 23.5 0 8.2-.6 10.8-7.3 31.5-10.9 33.2-20.2 53.4-28.2 61.1-7.4 7.2-19.3 11.9-33.7 13.4-32.5 3.3-47.9 22.2-41.6 50.8 3.1 14 18.5 34.4 33.1 44.1 21.1 14.1 56.2 12.9 77.6-2.6 2.6-1.8 8.6-6.1 13.3-9.5 4.7-3.5 9-6.3 9.4-6.4.4 0 3.6-2.2 7.2-4.9s14.4-10.4 24-17.3c19-13.6 21.7-14.7 34.5-14.7 10.1 0 16.2 1.7 22.9 6.6 3.4 2.4 7.5 5.2 9.1 6.4 6 4.2 21.5 15.6 27.2 20 3.2 2.4 7.2 5.2 8.8 6 1.7.9 5.7 3.5 9 5.8s8.8 6.2 12.2 8.6c10.1 7.2 24.9 11.7 38.8 11.8 21.4.3 34.2-4.8 48.5-19.2 4.7-4.7 9-9.2 9.5-10 8.3-11.7 11-17 12.9-25.1 1.4-6.2 1.5-17.3.1-23.4-1.1-5-7.8-13.7-13.6-17.6-7-4.7-15.7-7.6-28.3-9.5-16-2.4-19.4-3.4-26.6-7.9-11.5-7.3-19.7-21.6-31.4-55.1-12.5-36.1-13.7-46.3-6.9-60.1 4.7-9.4 8.8-12.2 27.8-19.2 52.2-19.1 65.3-24.5 69.7-28.8 4.1-4 9.8-14.7 11.8-22.3 2.5-9.1 1.1-29-2.1-32.5-.5-.5-.9-1.6-.9-2.5 0-2.5-7-13.5-11.7-18.3-8.2-8.4-21.3-13.4-34.3-13.1-6.8.1-18.1 3.2-72 19.8-6.3 1.9-11.6 3.4-11.7 3.2-.2-.2.7-1.4 1.9-2.7 5.9-6.4 12.9-19.4 16.6-30.9 8.2-25.4 4.9-53.5-9.2-76.5-1.6-2.7-3.5-5.5-4.1-6.2-.5-.7-3-3.6-5.5-6.6-12.7-15.3-33.3-26.6-55-30.2-4.4-.8-22.6-1.5-23.2-1z"/></svg>